# This file is brought to you by Roblox Corporation
# Generated by Roblox Studio

mtllib eurcr.mtl

g Part1

v -149.715 0.0419739 120.547 
v -152.2 0.0419739 123.032 
v -152.639 0.0419739 122.496 
v -153.049 0.0419739 121.658 
v -153.229 0.0419739 120.547 
v -153.049 0.0419739 119.435 
v -152.639 0.0419739 118.597 
v -152.2 0.0419739 118.061 
v -152.2 0.0419739 118.061 
v -151.664 0.0419739 117.622 
v -150.826 0.0419739 117.212 
v -149.715 0.0419739 117.032 
v -148.603 0.0419739 117.212 
v -147.765 0.0419739 117.622 
v -147.229 0.0419739 118.061 
v -147.229 0.0419739 118.061 
v -146.79 0.0419739 118.597 
v -146.38 0.0419739 119.435 
v -146.2 0.0419739 120.547 
v -146.38 0.0419739 121.658 
v -146.79 0.0419739 122.496 
v -147.229 0.0419739 123.032 
v -147.229 0.0419739 123.032 
v -147.765 0.0419739 123.471 
v -148.603 0.0419739 123.881 
v -149.715 0.0419739 124.061 
v -150.826 0.0419739 123.881 
v -151.664 0.0419739 123.471 
v -152.2 0.0419739 123.032 
v -147.229 0.0100091 123.032 
v -147.229 0.0419739 123.032 
v -147.765 0.0100091 123.471 
v -147.765 0.0419739 123.471 
v -148.603 0.0100091 123.881 
v -148.603 0.0419739 123.881 
v -149.715 0.0100091 124.061 
v -149.715 0.0419739 124.061 
v -150.826 0.0100091 123.881 
v -150.826 0.0419739 123.881 
v -151.664 0.0100091 123.471 
v -151.664 0.0419739 123.471 
v -152.2 0.0100091 123.032 
v -152.2 0.0419739 123.032 
v -147.229 0.0419739 123.032 
v -147.229 0.0100091 123.032 
v -146.79 0.0419739 122.496 
v -146.79 0.0100091 122.496 
v -146.38 0.0419739 121.658 
v -146.38 0.0100091 121.658 
v -146.2 0.0419739 120.547 
v -146.2 0.0100091 120.547 
v -146.38 0.0419739 119.435 
v -146.38 0.0100091 119.435 
v -146.79 0.0419739 118.597 
v -146.79 0.0100091 118.597 
v -147.229 0.0419739 118.061 
v -147.229 0.0100091 118.061 
v -149.715 0.0100091 120.547 
v -147.229 0.0100091 123.032 
v -146.79 0.0100091 122.496 
v -146.38 0.0100091 121.658 
v -146.2 0.0100091 120.547 
v -146.38 0.0100091 119.435 
v -146.79 0.0100091 118.597 
v -147.229 0.0100091 118.061 
v -147.229 0.0100091 118.061 
v -147.765 0.0100091 117.622 
v -148.603 0.0100091 117.212 
v -149.715 0.0100091 117.032 
v -150.826 0.0100091 117.212 
v -151.664 0.0100091 117.622 
v -152.2 0.0100091 118.061 
v -152.2 0.0100091 118.061 
v -152.639 0.0100091 118.597 
v -153.049 0.0100091 119.435 
v -153.229 0.0100091 120.547 
v -153.049 0.0100091 121.658 
v -152.639 0.0100091 122.496 
v -152.2 0.0100091 123.032 
v -152.2 0.0100091 123.032 
v -151.664 0.0100091 123.471 
v -150.826 0.0100091 123.881 
v -149.715 0.0100091 124.061 
v -148.603 0.0100091 123.881 
v -147.765 0.0100091 123.471 
v -147.229 0.0100091 123.032 
v -152.2 0.0100091 118.061 
v -152.2 0.0419739 118.061 
v -151.664 0.0100091 117.622 
v -151.664 0.0419739 117.622 
v -150.826 0.0100091 117.212 
v -150.826 0.0419739 117.212 
v -149.715 0.0100091 117.032 
v -149.715 0.0419739 117.032 
v -148.603 0.0100091 117.212 
v -148.603 0.0419739 117.212 
v -147.765 0.0100091 117.622 
v -147.765 0.0419739 117.622 
v -147.229 0.0100091 118.061 
v -147.229 0.0419739 118.061 
v -152.2 0.0100091 123.032 
v -152.2 0.0419739 123.032 
v -152.639 0.0100091 122.496 
v -152.639 0.0419739 122.496 
v -153.049 0.0100091 121.658 
v -153.049 0.0419739 121.658 
v -153.229 0.0100091 120.547 
v -153.229 0.0419739 120.547 
v -153.049 0.0100091 119.435 
v -153.049 0.0419739 119.435 
v -152.639 0.0100091 118.597 
v -152.639 0.0419739 118.597 
v -152.2 0.0100091 118.061 
v -152.2 0.0419739 118.061 

vn 0 1 0 
vn 0 1 0 
vn 0 1 0 
vn 0 1 0 
vn 0 1 0 
vn 0 1 0 
vn 0 1 0 
vn 0 1 0 
vn 0 1 0 
vn 0 1 0 
vn 0 1 0 
vn 0 1 0 
vn 0 1 0 
vn 0 1 0 
vn 0 1 0 
vn 0 1 0 
vn 0 1 0 
vn 0 1 0 
vn 0 1 0 
vn 0 1 0 
vn 0 1 0 
vn 0 1 0 
vn 0 1 0 
vn 0 1 0 
vn 0 1 0 
vn 0 1 0 
vn 0 1 0 
vn 0 1 0 
vn 0 1 0 
vn 0.708661 0 0.708661 
vn 0.708661 0 0.708661 
vn 0.551181 0 0.834646 
vn 0.551181 0 0.834646 
vn 0.314961 0 0.944882 
vn 0.314961 0 0.944882 
vn 0 0 1 
vn 0 0 1 
vn -0.314961 0 0.944882 
vn -0.314961 0 0.944882 
vn -0.551181 0 0.834646 
vn -0.551181 0 0.834646 
vn -0.708661 0 0.708661 
vn -0.708661 0 0.708661 
vn 0.708661 0 0.708661 
vn 0.708661 0 0.708661 
vn 0.834646 0 0.551181 
vn 0.834646 0 0.551181 
vn 0.944882 0 0.314961 
vn 0.944882 0 0.314961 
vn 1 0 0 
vn 1 0 0 
vn 0.944882 0 -0.314961 
vn 0.944882 0 -0.314961 
vn 0.834646 0 -0.551181 
vn 0.834646 0 -0.551181 
vn 0.708661 0 -0.708661 
vn 0.708661 0 -0.708661 
vn 0 -1 0 
vn 0 -1 0 
vn 0 -1 0 
vn 0 -1 0 
vn 0 -1 0 
vn 0 -1 0 
vn 0 -1 0 
vn 0 -1 0 
vn 0 -1 0 
vn 0 -1 0 
vn 0 -1 0 
vn 0 -1 0 
vn 0 -1 0 
vn 0 -1 0 
vn 0 -1 0 
vn 0 -1 0 
vn 0 -1 0 
vn 0 -1 0 
vn 0 -1 0 
vn 0 -1 0 
vn 0 -1 0 
vn 0 -1 0 
vn 0 -1 0 
vn 0 -1 0 
vn 0 -1 0 
vn 0 -1 0 
vn 0 -1 0 
vn 0 -1 0 
vn 0 -1 0 
vn -0.708661 0 -0.708661 
vn -0.708661 0 -0.708661 
vn -0.551181 0 -0.834646 
vn -0.551181 0 -0.834646 
vn -0.314961 0 -0.944882 
vn -0.314961 0 -0.944882 
vn 0 0 -1 
vn 0 0 -1 
vn 0.314961 0 -0.944882 
vn 0.314961 0 -0.944882 
vn 0.551181 0 -0.834646 
vn 0.551181 0 -0.834646 
vn 0.708661 0 -0.708661 
vn 0.708661 0 -0.708661 
vn -0.708661 0 0.708661 
vn -0.708661 0 0.708661 
vn -0.834646 0 0.551181 
vn -0.834646 0 0.551181 
vn -0.944882 0 0.314961 
vn -0.944882 0 0.314961 
vn -1 0 0 
vn -1 0 0 
vn -0.944882 0 -0.314961 
vn -0.944882 0 -0.314961 
vn -0.834646 0 -0.551181 
vn -0.834646 0 -0.551181 
vn -0.708661 0 -0.708661 
vn -0.708661 0 -0.708661 

vt 5.68933 -7.18933 
vt 5.99998 -6.87868 
vt 6.05487 -6.94563 
vt 6.10611 -7.0504 
vt 6.12866 -7.18933 
vt 6.10611 -7.32826 
vt 6.05487 -7.43303 
vt 5.99998 -7.49998 
vt 5.99998 -7.49998 
vt 5.93303 -7.55487 
vt 5.82826 -7.60611 
vt 5.68933 -7.62866 
vt 5.5504 -7.60611 
vt 5.44563 -7.55487 
vt 5.37868 -7.49998 
vt 5.37868 -7.49998 
vt 5.32379 -7.43303 
vt 5.27254 -7.32826 
vt 5.25 -7.18933 
vt 5.27254 -7.0504 
vt 5.32379 -6.94563 
vt 5.37868 -6.87868 
vt 5.37868 -6.87868 
vt 5.44563 -6.82379 
vt 5.5504 -6.77254 
vt 5.68933 -6.75 
vt 5.82826 -6.77254 
vt 5.93303 -6.82379 
vt 5.99998 -6.87868 
vt 10.504 -14.5 
vt 10.5 -14.5 
vt 10.504 -14.6464 
vt 10.5 -14.6464 
vt 10.504 -14.7929 
vt 10.5 -14.7929 
vt 10.504 -14.9393 
vt 10.5 -14.9393 
vt 10.504 -15.0858 
vt 10.5 -15.0858 
vt 10.504 -15.2322 
vt 10.5 -15.2322 
vt 10.504 -15.3787 
vt 10.5 -15.3787 
vt 10.504 -14.5 
vt 10.5 -14.5 
vt 10.504 -14.6464 
vt 10.5 -14.6464 
vt 10.504 -14.7929 
vt 10.5 -14.7929 
vt 10.504 -14.9393 
vt 10.5 -14.9393 
vt 10.504 -15.0858 
vt 10.5 -15.0858 
vt 10.504 -15.2322 
vt 10.5 -15.2322 
vt 10.504 -15.3787 
vt 10.5 -15.3787 
vt 5.68933 -7.18933 
vt 5.99998 -6.87868 
vt 6.05487 -6.94563 
vt 6.10611 -7.0504 
vt 6.12866 -7.18933 
vt 6.10611 -7.32826 
vt 6.05487 -7.43303 
vt 5.99998 -7.49998 
vt 5.99998 -7.49998 
vt 5.93303 -7.55487 
vt 5.82826 -7.60611 
vt 5.68933 -7.62866 
vt 5.5504 -7.60611 
vt 5.44563 -7.55487 
vt 5.37868 -7.49998 
vt 5.37868 -7.49998 
vt 5.32379 -7.43303 
vt 5.27254 -7.32826 
vt 5.25 -7.18933 
vt 5.27254 -7.0504 
vt 5.32379 -6.94563 
vt 5.37868 -6.87868 
vt 5.37868 -6.87868 
vt 5.44563 -6.82379 
vt 5.5504 -6.77254 
vt 5.68933 -6.75 
vt 5.82826 -6.77254 
vt 5.93303 -6.82379 
vt 5.99998 -6.87868 
vt 10.504 -14.5 
vt 10.5 -14.5 
vt 10.504 -14.6464 
vt 10.5 -14.6464 
vt 10.504 -14.7929 
vt 10.5 -14.7929 
vt 10.504 -14.9393 
vt 10.5 -14.9393 
vt 10.504 -15.0858 
vt 10.5 -15.0858 
vt 10.504 -15.2322 
vt 10.5 -15.2322 
vt 10.504 -15.3787 
vt 10.5 -15.3787 
vt 10.504 -14.5 
vt 10.5 -14.5 
vt 10.504 -14.6464 
vt 10.5 -14.6464 
vt 10.504 -14.7929 
vt 10.5 -14.7929 
vt 10.504 -14.9393 
vt 10.5 -14.9393 
vt 10.504 -15.0858 
vt 10.5 -15.0858 
vt 10.504 -15.2322 
vt 10.5 -15.2322 
vt 10.504 -15.3787 
vt 10.5 -15.3787 

usemtl Part1Mtl

f 1/1/1 3/3/3 2/2/2 
f 1/1/1 4/4/4 3/3/3 
f 1/1/1 5/5/5 4/4/4 
f 1/1/1 6/6/6 5/5/5 
f 1/1/1 7/7/7 6/6/6 
f 1/1/1 8/8/8 7/7/7 
f 1/1/1 10/10/10 9/9/9 
f 1/1/1 11/11/11 10/10/10 
f 1/1/1 12/12/12 11/11/11 
f 1/1/1 13/13/13 12/12/12 
f 1/1/1 14/14/14 13/13/13 
f 1/1/1 15/15/15 14/14/14 
f 1/1/1 17/17/17 16/16/16 
f 1/1/1 18/18/18 17/17/17 
f 1/1/1 19/19/19 18/18/18 
f 1/1/1 20/20/20 19/19/19 
f 1/1/1 21/21/21 20/20/20 
f 1/1/1 22/22/22 21/21/21 
f 1/1/1 24/24/24 23/23/23 
f 1/1/1 25/25/25 24/24/24 
f 1/1/1 26/26/26 25/25/25 
f 1/1/1 27/27/27 26/26/26 
f 1/1/1 28/28/28 27/27/27 
f 1/1/1 29/29/29 28/28/28 
f 30/30/30 31/31/31 32/32/32 
f 32/32/32 31/31/31 33/33/33 
f 32/32/32 33/33/33 34/34/34 
f 34/34/34 33/33/33 35/35/35 
f 34/34/34 35/35/35 36/36/36 
f 36/36/36 35/35/35 37/37/37 
f 36/36/36 37/37/37 38/38/38 
f 38/38/38 37/37/37 39/39/39 
f 38/38/38 39/39/39 40/40/40 
f 40/40/40 39/39/39 41/41/41 
f 40/40/40 41/41/41 42/42/42 
f 42/42/42 41/41/41 43/43/43 
f 44/44/44 45/45/45 46/46/46 
f 46/46/46 45/45/45 47/47/47 
f 46/46/46 47/47/47 48/48/48 
f 48/48/48 47/47/47 49/49/49 
f 48/48/48 49/49/49 50/50/50 
f 50/50/50 49/49/49 51/51/51 
f 50/50/50 51/51/51 52/52/52 
f 52/52/52 51/51/51 53/53/53 
f 52/52/52 53/53/53 54/54/54 
f 54/54/54 53/53/53 55/55/55 
f 54/54/54 55/55/55 56/56/56 
f 56/56/56 55/55/55 57/57/57 
f 58/58/58 60/60/60 59/59/59 
f 58/58/58 61/61/61 60/60/60 
f 58/58/58 62/62/62 61/61/61 
f 58/58/58 63/63/63 62/62/62 
f 58/58/58 64/64/64 63/63/63 
f 58/58/58 65/65/65 64/64/64 
f 58/58/58 67/67/67 66/66/66 
f 58/58/58 68/68/68 67/67/67 
f 58/58/58 69/69/69 68/68/68 
f 58/58/58 70/70/70 69/69/69 
f 58/58/58 71/71/71 70/70/70 
f 58/58/58 72/72/72 71/71/71 
f 58/58/58 74/74/74 73/73/73 
f 58/58/58 75/75/75 74/74/74 
f 58/58/58 76/76/76 75/75/75 
f 58/58/58 77/77/77 76/76/76 
f 58/58/58 78/78/78 77/77/77 
f 58/58/58 79/79/79 78/78/78 
f 58/58/58 81/81/81 80/80/80 
f 58/58/58 82/82/82 81/81/81 
f 58/58/58 83/83/83 82/82/82 
f 58/58/58 84/84/84 83/83/83 
f 58/58/58 85/85/85 84/84/84 
f 58/58/58 86/86/86 85/85/85 
f 87/87/87 88/88/88 89/89/89 
f 89/89/89 88/88/88 90/90/90 
f 89/89/89 90/90/90 91/91/91 
f 91/91/91 90/90/90 92/92/92 
f 91/91/91 92/92/92 93/93/93 
f 93/93/93 92/92/92 94/94/94 
f 93/93/93 94/94/94 95/95/95 
f 95/95/95 94/94/94 96/96/96 
f 95/95/95 96/96/96 97/97/97 
f 97/97/97 96/96/96 98/98/98 
f 97/97/97 98/98/98 99/99/99 
f 99/99/99 98/98/98 100/100/100 
f 101/101/101 102/102/102 103/103/103 
f 103/103/103 102/102/102 104/104/104 
f 103/103/103 104/104/104 105/105/105 
f 105/105/105 104/104/104 106/106/106 
f 105/105/105 106/106/106 107/107/107 
f 107/107/107 106/106/106 108/108/108 
f 107/107/107 108/108/108 109/109/109 
f 109/109/109 108/108/108 110/110/110 
f 109/109/109 110/110/110 111/111/111 
f 111/111/111 110/110/110 112/112/112 
f 111/111/111 112/112/112 113/113/113 
f 113/113/113 112/112/112 114/114/114 

g Part2

v -149.715 0.0619739 120.547 
v -152.2 0.0619739 123.032 
v -152.639 0.0619739 122.496 
v -153.049 0.0619739 121.658 
v -153.229 0.0619739 120.547 
v -153.049 0.0619739 119.435 
v -152.639 0.0619739 118.597 
v -152.2 0.0619739 118.061 
v -152.2 0.0619739 118.061 
v -151.664 0.0619739 117.622 
v -150.826 0.0619739 117.212 
v -149.715 0.0619739 117.032 
v -148.603 0.0619739 117.212 
v -147.765 0.0619739 117.622 
v -147.229 0.0619739 118.061 
v -147.229 0.0619739 118.061 
v -146.79 0.0619739 118.597 
v -146.38 0.0619739 119.435 
v -146.2 0.0619739 120.547 
v -146.38 0.0619739 121.658 
v -146.79 0.0619739 122.496 
v -147.229 0.0619739 123.032 
v -147.229 0.0619739 123.032 
v -147.765 0.0619739 123.471 
v -148.603 0.0619739 123.881 
v -149.715 0.0619739 124.061 
v -150.826 0.0619739 123.881 
v -151.664 0.0619739 123.471 
v -152.2 0.0619739 123.032 

vn 0 1 0 
vn 0 1 0 
vn 0 1 0 
vn 0 1 0 
vn 0 1 0 
vn 0 1 0 
vn 0 1 0 
vn 0 1 0 
vn 0 1 0 
vn 0 1 0 
vn 0 1 0 
vn 0 1 0 
vn 0 1 0 
vn 0 1 0 
vn 0 1 0 
vn 0 1 0 
vn 0 1 0 
vn 0 1 0 
vn 0 1 0 
vn 0 1 0 
vn 0 1 0 
vn 0 1 0 
vn 0 1 0 
vn 0 1 0 
vn 0 1 0 
vn 0 1 0 
vn 0 1 0 
vn 0 1 0 
vn 0 1 0 

vt 0.5 0.5 
vt 0.853553 0.853553 
vt 0.916025 0.77735 
vt 0.974342 0.658114 
vt 1 0.5 
vt 0.974342 0.341886 
vt 0.916025 0.22265 
vt 0.853553 0.146447 
vt 0.853553 0.146447 
vt 0.77735 0.0839748 
vt 0.658114 0.0256584 
vt 0.5 0 
vt 0.341886 0.0256584 
vt 0.22265 0.0839748 
vt 0.146447 0.146447 
vt 0.146447 0.146447 
vt 0.0839748 0.22265 
vt 0.0256583 0.341886 
vt 0 0.5 
vt 0.0256583 0.658114 
vt 0.0839748 0.77735 
vt 0.146447 0.853553 
vt 0.146447 0.853553 
vt 0.22265 0.916025 
vt 0.341886 0.974342 
vt 0.5 1 
vt 0.658114 0.974342 
vt 0.77735 0.916025 
vt 0.853553 0.853553 

usemtl Part2Mtl

f 115/115/115 117/117/117 116/116/116 
f 115/115/115 118/118/118 117/117/117 
f 115/115/115 119/119/119 118/118/118 
f 115/115/115 120/120/120 119/119/119 
f 115/115/115 121/121/121 120/120/120 
f 115/115/115 122/122/122 121/121/121 
f 115/115/115 124/124/124 123/123/123 
f 115/115/115 125/125/125 124/124/124 
f 115/115/115 126/126/126 125/125/125 
f 115/115/115 127/127/127 126/126/126 
f 115/115/115 128/128/128 127/127/127 
f 115/115/115 129/129/129 128/128/128 
f 115/115/115 131/131/131 130/130/130 
f 115/115/115 132/132/132 131/131/131 
f 115/115/115 133/133/133 132/132/132 
f 115/115/115 134/134/134 133/133/133 
f 115/115/115 135/135/135 134/134/134 
f 115/115/115 136/136/136 135/135/135 
f 115/115/115 138/138/138 137/137/137 
f 115/115/115 139/139/139 138/138/138 
f 115/115/115 140/140/140 139/139/139 
f 115/115/115 141/141/141 140/140/140 
f 115/115/115 142/142/142 141/141/141 
f 115/115/115 143/143/143 142/142/142 

g Part3

v -149.715 -0.00999095 120.547 
v -147.229 -0.00999095 123.032 
v -146.79 -0.00999095 122.496 
v -146.38 -0.00999095 121.658 
v -146.2 -0.00999095 120.547 
v -146.38 -0.00999095 119.435 
v -146.79 -0.00999095 118.597 
v -147.229 -0.00999095 118.061 
v -147.229 -0.00999095 118.061 
v -147.765 -0.00999095 117.622 
v -148.603 -0.00999095 117.212 
v -149.715 -0.00999095 117.032 
v -150.826 -0.00999095 117.212 
v -151.664 -0.00999095 117.622 
v -152.2 -0.00999095 118.061 
v -152.2 -0.00999095 118.061 
v -152.639 -0.00999095 118.597 
v -153.049 -0.00999095 119.435 
v -153.229 -0.00999095 120.547 
v -153.049 -0.00999095 121.658 
v -152.639 -0.00999095 122.496 
v -152.2 -0.00999095 123.032 
v -152.2 -0.00999095 123.032 
v -151.664 -0.00999095 123.471 
v -150.826 -0.00999095 123.881 
v -149.715 -0.00999095 124.061 
v -148.603 -0.00999095 123.881 
v -147.765 -0.00999095 123.471 
v -147.229 -0.00999095 123.032 

vn 0 -1 0 
vn 0 -1 0 
vn 0 -1 0 
vn 0 -1 0 
vn 0 -1 0 
vn 0 -1 0 
vn 0 -1 0 
vn 0 -1 0 
vn 0 -1 0 
vn 0 -1 0 
vn 0 -1 0 
vn 0 -1 0 
vn 0 -1 0 
vn 0 -1 0 
vn 0 -1 0 
vn 0 -1 0 
vn 0 -1 0 
vn 0 -1 0 
vn 0 -1 0 
vn 0 -1 0 
vn 0 -1 0 
vn 0 -1 0 
vn 0 -1 0 
vn 0 -1 0 
vn 0 -1 0 
vn 0 -1 0 
vn 0 -1 0 
vn 0 -1 0 
vn 0 -1 0 

vt 0.5 0.5 
vt 0.853553 0.853553 
vt 0.916025 0.77735 
vt 0.974342 0.658114 
vt 1 0.5 
vt 0.974342 0.341886 
vt 0.916025 0.22265 
vt 0.853553 0.146447 
vt 0.853553 0.146447 
vt 0.77735 0.0839748 
vt 0.658114 0.0256584 
vt 0.5 0 
vt 0.341886 0.0256584 
vt 0.22265 0.0839748 
vt 0.146447 0.146447 
vt 0.146447 0.146447 
vt 0.0839748 0.22265 
vt 0.0256583 0.341886 
vt 0 0.5 
vt 0.0256583 0.658114 
vt 0.0839748 0.77735 
vt 0.146447 0.853553 
vt 0.146447 0.853553 
vt 0.22265 0.916025 
vt 0.341886 0.974342 
vt 0.5 1 
vt 0.658114 0.974342 
vt 0.77735 0.916025 
vt 0.853553 0.853553 

usemtl Part2Mtl

f 144/144/144 146/146/146 145/145/145 
f 144/144/144 147/147/147 146/146/146 
f 144/144/144 148/148/148 147/147/147 
f 144/144/144 149/149/149 148/148/148 
f 144/144/144 150/150/150 149/149/149 
f 144/144/144 151/151/151 150/150/150 
f 144/144/144 153/153/153 152/152/152 
f 144/144/144 154/154/154 153/153/153 
f 144/144/144 155/155/155 154/154/154 
f 144/144/144 156/156/156 155/155/155 
f 144/144/144 157/157/157 156/156/156 
f 144/144/144 158/158/158 157/157/157 
f 144/144/144 160/160/160 159/159/159 
f 144/144/144 161/161/161 160/160/160 
f 144/144/144 162/162/162 161/161/161 
f 144/144/144 163/163/163 162/162/162 
f 144/144/144 164/164/164 163/163/163 
f 144/144/144 165/165/165 164/164/164 
f 144/144/144 167/167/167 166/166/166 
f 144/144/144 168/168/168 167/167/167 
f 144/144/144 169/169/169 168/168/168 
f 144/144/144 170/170/170 169/169/169 
f 144/144/144 171/171/171 170/170/170 
f 144/144/144 172/172/172 171/171/171 

g Part4

v -147.215 0.0419739 123.046 
v -147.215 0.0100091 123.046 
v -146.774 0.0419739 122.507 
v -146.774 0.0100091 122.507 
v -146.361 0.0419739 121.664 
v -146.361 0.0100091 121.664 
v -146.18 0.0419739 120.547 
v -146.18 0.0100091 120.547 
v -146.361 0.0419739 119.429 
v -146.361 0.0100091 119.429 
v -146.774 0.0419739 118.586 
v -146.774 0.0100091 118.586 
v -147.215 0.0419739 118.047 
v -147.215 0.0100091 118.047 

vn 0.708661 0 0.708661 
vn 0.708661 0 0.708661 
vn 0.834646 0 0.551181 
vn 0.834646 0 0.551181 
vn 0.944882 0 0.314961 
vn 0.944882 0 0.314961 
vn 1 0 0 
vn 1 0 0 
vn 0.944882 0 -0.314961 
vn 0.944882 0 -0.314961 
vn 0.834646 0 -0.551181 
vn 0.834646 0 -0.551181 
vn 0.708661 0 -0.708661 
vn 0.708661 0 -0.708661 

vt 1 1 
vt 0 1 
vt 1 0.833333 
vt 0 0.833333 
vt 1 0.666667 
vt 0 0.666667 
vt 1 0.5 
vt 0 0.5 
vt 1 0.333333 
vt 0 0.333333 
vt 1 0.166667 
vt 0 0.166667 
vt 1 0 
vt 0 0 

usemtl Part2Mtl

f 173/173/173 174/174/174 175/175/175 
f 175/175/175 174/174/174 176/176/176 
f 175/175/175 176/176/176 177/177/177 
f 177/177/177 176/176/176 178/178/178 
f 177/177/177 178/178/178 179/179/179 
f 179/179/179 178/178/178 180/180/180 
f 179/179/179 180/180/180 181/181/181 
f 181/181/181 180/180/180 182/182/182 
f 181/181/181 182/182/182 183/183/183 
f 183/183/183 182/182/182 184/184/184 
f 183/183/183 184/184/184 185/185/185 
f 185/185/185 184/184/184 186/186/186 

g Part5

v -152.214 0.0100091 123.046 
v -152.214 0.0419739 123.046 
v -152.656 0.0100091 122.507 
v -152.656 0.0419739 122.507 
v -153.068 0.0100091 121.664 
v -153.068 0.0419739 121.664 
v -153.249 0.0100091 120.547 
v -153.249 0.0419739 120.547 
v -153.068 0.0100091 119.429 
v -153.068 0.0419739 119.429 
v -152.656 0.0100091 118.586 
v -152.656 0.0419739 118.586 
v -152.214 0.0100091 118.047 
v -152.214 0.0419739 118.047 

vn -0.708661 0 0.708661 
vn -0.708661 0 0.708661 
vn -0.834646 0 0.551181 
vn -0.834646 0 0.551181 
vn -0.944882 0 0.314961 
vn -0.944882 0 0.314961 
vn -1 0 0 
vn -1 0 0 
vn -0.944882 0 -0.314961 
vn -0.944882 0 -0.314961 
vn -0.834646 0 -0.551181 
vn -0.834646 0 -0.551181 
vn -0.708661 0 -0.708661 
vn -0.708661 0 -0.708661 

vt 1 1 
vt 0 1 
vt 1 0.833333 
vt 0 0.833333 
vt 1 0.666667 
vt 0 0.666667 
vt 1 0.5 
vt 0 0.5 
vt 1 0.333333 
vt 0 0.333333 
vt 1 0.166667 
vt 0 0.166667 
vt 1 0 
vt 0 0 

usemtl Part2Mtl

f 187/187/187 188/188/188 189/189/189 
f 189/189/189 188/188/188 190/190/190 
f 189/189/189 190/190/190 191/191/191 
f 191/191/191 190/190/190 192/192/192 
f 191/191/191 192/192/192 193/193/193 
f 193/193/193 192/192/192 194/194/194 
f 193/193/193 194/194/194 195/195/195 
f 195/195/195 194/194/194 196/196/196 
f 195/195/195 196/196/196 197/197/197 
f 197/197/197 196/196/196 198/198/198 
f 197/197/197 198/198/198 199/199/199 
f 199/199/199 198/198/198 200/200/200 

g Part6

v -152.214 0.0100091 118.047 
v -152.214 0.0419739 118.047 
v -151.675 0.0100091 117.606 
v -151.675 0.0419739 117.606 
v -150.832 0.0100091 117.194 
v -150.832 0.0419739 117.194 
v -149.715 0.0100091 117.012 
v -149.715 0.0419739 117.012 
v -148.597 0.0100091 117.194 
v -148.597 0.0419739 117.194 
v -147.754 0.0100091 117.606 
v -147.754 0.0419739 117.606 
v -147.215 0.0100091 118.047 
v -147.215 0.0419739 118.047 

vn -0.708661 0 -0.708661 
vn -0.708661 0 -0.708661 
vn -0.551181 0 -0.834646 
vn -0.551181 0 -0.834646 
vn -0.314961 0 -0.944882 
vn -0.314961 0 -0.944882 
vn 0 0 -1 
vn 0 0 -1 
vn 0.314961 0 -0.944882 
vn 0.314961 0 -0.944882 
vn 0.551181 0 -0.834646 
vn 0.551181 0 -0.834646 
vn 0.708661 0 -0.708661 
vn 0.708661 0 -0.708661 

vt 1 1 
vt 0 1 
vt 1 0.833333 
vt 0 0.833333 
vt 1 0.666667 
vt 0 0.666667 
vt 1 0.5 
vt 0 0.5 
vt 1 0.333333 
vt 0 0.333333 
vt 1 0.166667 
vt 0 0.166667 
vt 1 0 
vt 0 0 

usemtl Part2Mtl

f 201/201/201 202/202/202 203/203/203 
f 203/203/203 202/202/202 204/204/204 
f 203/203/203 204/204/204 205/205/205 
f 205/205/205 204/204/204 206/206/206 
f 205/205/205 206/206/206 207/207/207 
f 207/207/207 206/206/206 208/208/208 
f 207/207/207 208/208/208 209/209/209 
f 209/209/209 208/208/208 210/210/210 
f 209/209/209 210/210/210 211/211/211 
f 211/211/211 210/210/210 212/212/212 
f 211/211/211 212/212/212 213/213/213 
f 213/213/213 212/212/212 214/214/214 

g Part7

v -147.215 0.0100091 123.046 
v -147.215 0.0419739 123.046 
v -147.754 0.0100091 123.488 
v -147.754 0.0419739 123.488 
v -148.597 0.0100091 123.9 
v -148.597 0.0419739 123.9 
v -149.715 0.0100091 124.081 
v -149.715 0.0419739 124.081 
v -150.832 0.0100091 123.9 
v -150.832 0.0419739 123.9 
v -151.675 0.0100091 123.488 
v -151.675 0.0419739 123.488 
v -152.214 0.0100091 123.046 
v -152.214 0.0419739 123.046 

vn 0.708661 0 0.708661 
vn 0.708661 0 0.708661 
vn 0.551181 0 0.834646 
vn 0.551181 0 0.834646 
vn 0.314961 0 0.944882 
vn 0.314961 0 0.944882 
vn 0 0 1 
vn 0 0 1 
vn -0.314961 0 0.944882 
vn -0.314961 0 0.944882 
vn -0.551181 0 0.834646 
vn -0.551181 0 0.834646 
vn -0.708661 0 0.708661 
vn -0.708661 0 0.708661 

vt 1 1 
vt 0 1 
vt 1 0.833333 
vt 0 0.833333 
vt 1 0.666667 
vt 0 0.666667 
vt 1 0.5 
vt 0 0.5 
vt 1 0.333333 
vt 0 0.333333 
vt 1 0.166667 
vt 0 0.166667 
vt 1 0 
vt 0 0 

usemtl Part2Mtl

f 215/215/215 216/216/216 217/217/217 
f 217/217/217 216/216/216 218/218/218 
f 217/217/217 218/218/218 219/219/219 
f 219/219/219 218/218/218 220/220/220 
f 219/219/219 220/220/220 221/221/221 
f 221/221/221 220/220/220 222/222/222 
f 221/221/221 222/222/222 223/223/223 
f 223/223/223 222/222/222 224/224/224 
f 223/223/223 224/224/224 225/225/225 
f 225/225/225 224/224/224 226/226/226 
f 225/225/225 226/226/226 227/227/227 
f 227/227/227 226/226/226 228/228/228 

